<svg width="22" height="22" viewBox="0 0 22 22" fill="none" xmlns="http://www.w3.org/2000/svg">
<path d="M21.4644 0.53248C20.943 0.010355 20.1307 -0.146428 19.4463 0.150366L1.09426 8.15398C0.39311 8.45952 -0.045154 9.17781 0.00370411 9.94095C0.0521976 10.7037 0.577969 11.3604 1.31157 11.5748L8.36099 13.6348L10.4211 20.6846C10.6354 21.4182 11.2921 21.944 12.0498 21.9925C12.0906 21.9954 12.1304 21.9965 12.1712 21.9965C12.896 21.9965 13.552 21.567 13.8419 20.9023L21.8455 2.55025C22.1481 1.85785 21.9982 1.06554 21.4644 0.53248ZM12.2394 19.1059L10.1254 11.8712L2.89071 9.75718L19.4696 2.52691L12.2394 19.1059Z" fill="#24B3E6"/>
</svg>
