<svg width="153" height="141" viewBox="0 0 153 141" fill="none" xmlns="http://www.w3.org/2000/svg">
<g fill="#747474">
<circle cx="8.12325" cy="8.12325" r="8.12325"/>
<circle cx="8.12325" cy="39.1393" r="8.12325"/>
<circle cx="8.12325" cy="70.1553" r="8.12325"/>
<circle cx="8.12325" cy="101.171" r="8.12325"/>
<circle cx="8.12325" cy="132.187" r="8.12325"/>
<circle cx="42.093" cy="8.12325" r="8.12325"/>
<circle cx="42.093" cy="39.1393" r="8.12325"/>
<circle cx="42.093" cy="70.1553" r="8.12325"/>
<circle cx="42.093" cy="101.171" r="8.12325"/>
<circle cx="42.093" cy="132.187" r="8.12325"/>
<circle cx="76.0637" cy="8.12325" r="8.12325"/>
<circle cx="76.0637" cy="39.1393" r="8.12325"/>
<circle cx="76.0637" cy="70.1553" r="8.12325"/>
<circle cx="76.0637" cy="101.171" r="8.12325"/>
<circle cx="76.0637" cy="132.187" r="8.12325"/>
<circle cx="110.033" cy="8.12325" r="8.12325"/>
<circle cx="110.033" cy="39.1393" r="8.12325"/>
<circle cx="110.033" cy="70.1553" r="8.12325"/>
<circle cx="110.033" cy="101.171" r="8.12325"/>
<circle cx="110.033" cy="132.187" r="8.12325"/>
<circle cx="144.003" cy="8.12325" r="8.12325"/>
<circle cx="144.003" cy="39.1393" r="8.12325"/>
<circle cx="144.003" cy="70.1553" r="8.12325"/>
<circle cx="144.003" cy="101.171" r="8.12325"/>
<circle cx="144.003" cy="132.187" r="8.12325"/>
</g>
</svg>
