<svg width="21" height="21" viewBox="0 0 21 21" fill="none" xmlns="http://www.w3.org/2000/svg">
<path d="M20.4451 15.627C19.9441 15.0518 17.6362 12.7408 17.3751 12.4797C17.2097 12.2966 16.5886 11.6815 15.7099 11.6815C15.2935 11.6815 14.8841 11.8225 14.5264 12.0896C14.0805 12.423 13.4252 13.0032 12.9502 13.4354C12.3364 13.0831 11.3721 12.4997 10.7187 11.9622C9.59379 11.0373 8.58516 9.82996 7.63579 8.27249L7.53565 8.08394C8.01636 7.55697 8.59847 6.89944 8.93088 6.45359C9.76649 5.33437 9.16347 4.14955 8.53573 3.59945C8.25149 3.31552 5.96583 1.03335 5.39449 0.536162C4.99205 0.185375 4.49899 0 3.96853 0C3.54993 0 3.24097 0.116295 3.15605 0.152103L2.87339 0.317198C1.63977 1.1094 0.104801 2.09521 0.0205105 5.78434C0.0173417 9.3952 2.80177 12.8704 5.14796 15.1567C7.58762 17.8277 11.304 21 15.1896 21L15.2168 20.9997C18.886 20.9157 19.8715 19.3807 20.6634 18.1468L20.7499 18.0118L20.8275 17.8648C21.0173 17.4148 21.1498 16.4369 20.4451 15.627ZM19.0818 17.0916L19.0635 17.1201C18.3752 18.1921 17.8317 19.0385 15.194 19.099L15.1893 20.0497V19.099C11.8183 19.099 8.31898 15.8133 6.53336 13.8547L6.49375 13.8138C3.54327 10.9438 1.91958 8.09282 1.92148 5.80716C1.98232 3.14884 2.82902 2.60539 3.90071 1.91713L3.92004 1.90477C3.99134 1.8959 4.07595 1.90889 4.14598 1.97005C4.60039 2.36583 6.51688 4.26965 7.21719 4.96996L7.26884 5.01781C7.34774 5.08879 7.43457 5.21934 7.43869 5.26434C7.43869 5.26434 7.43393 5.28177 7.40763 5.31694C7.12022 5.70227 6.49723 6.41525 5.68507 7.2873L5.22401 7.78259L5.96963 9.18859L5.99688 9.23707C7.06318 10.992 8.21283 12.3641 9.5114 13.4316C10.6763 14.3892 12.5614 15.3982 12.6409 15.4406L13.2405 15.7601L13.7367 15.2968C14.3381 14.7353 15.2045 13.9573 15.6643 13.6138C15.6941 13.5916 15.7105 13.5847 15.7109 13.5834C15.7641 13.5885 15.8921 13.674 15.9526 13.7406L16.0106 13.804C16.7109 14.5043 18.6154 16.4211 19.0112 16.8755C19.0806 16.9553 19.0866 17.0415 19.0818 17.0916Z" fill="#FFDB4D"/>
</svg>
